<svg width="205" height="41" viewBox="0 0 205 41" fill="none" xmlns="http://www.w3.org/2000/svg">
<path d="M77.8506 15.0225C77.167 15.0225 76.5566 15.1689 76.0195 15.4619C75.4824 15.7451 75.0234 16.1602 74.6426 16.707C74.2617 17.2539 73.9688 17.9229 73.7637 18.7139C73.5684 19.4951 73.4707 20.3838 73.4707 21.3799C73.4707 22.7275 73.6416 23.8604 73.9834 24.7783C74.3252 25.6963 74.8428 26.3896 75.5361 26.8584C76.2393 27.3271 77.1182 27.5615 78.1729 27.5615C79.1299 27.5615 80.0479 27.4297 80.9268 27.166C81.8154 26.9023 82.709 26.585 83.6074 26.2139V31.1064C82.6602 31.5264 81.6885 31.8291 80.6924 32.0146C79.7061 32.2002 78.6562 32.293 77.543 32.293C75.2188 32.293 73.3145 31.834 71.8301 30.916C70.3555 29.9883 69.2666 28.7041 68.5635 27.0635C67.8701 25.4229 67.5234 23.5186 67.5234 21.3506C67.5234 19.7295 67.748 18.2451 68.1973 16.8975C68.6562 15.5498 69.3252 14.3828 70.2041 13.3965C71.083 12.4004 72.167 11.6338 73.4561 11.0967C74.7549 10.5498 76.2393 10.2764 77.9092 10.2764C78.9443 10.2764 80.0332 10.3984 81.1758 10.6426C82.3281 10.877 83.4512 11.2578 84.5449 11.7852L82.7725 16.3408C81.9912 15.9697 81.2002 15.6572 80.3994 15.4033C79.5986 15.1494 78.749 15.0225 77.8506 15.0225ZM95.5605 15.1104C97.6602 15.1104 99.3008 15.6328 100.482 16.6777C101.664 17.7129 102.255 19.1924 102.255 21.1162V32H98.2852L97.1865 29.8027H97.0693C96.6006 30.3887 96.1172 30.8672 95.6191 31.2383C95.1309 31.5996 94.5693 31.8633 93.9346 32.0293C93.2998 32.2051 92.5234 32.293 91.6055 32.293C90.6484 32.293 89.7891 32.0977 89.0273 31.707C88.2656 31.3164 87.665 30.7256 87.2256 29.9346C86.7861 29.1436 86.5664 28.1426 86.5664 26.9316C86.5664 25.1543 87.1816 23.8359 88.4121 22.9766C89.6426 22.1172 91.4248 21.6338 93.7588 21.5264L96.5273 21.4385V21.2041C96.5273 20.4619 96.3418 19.9346 95.9707 19.6221C95.6094 19.3096 95.1211 19.1533 94.5059 19.1533C93.8516 19.1533 93.1191 19.2705 92.3086 19.5049C91.5078 19.7295 90.7021 20.0225 89.8916 20.3838L88.2363 16.6045C89.1934 16.1162 90.2773 15.7451 91.4883 15.4912C92.6992 15.2373 94.0566 15.1104 95.5605 15.1104ZM96.5566 24.5879L95.2383 24.6465C94.1836 24.6855 93.4414 24.8711 93.0117 25.2031C92.5918 25.5254 92.3818 25.9893 92.3818 26.5947C92.3818 27.1611 92.5332 27.5811 92.8359 27.8545C93.1387 28.1182 93.5391 28.25 94.0371 28.25C94.7305 28.25 95.3213 28.0303 95.8096 27.5908C96.3076 27.1514 96.5566 26.5801 96.5566 25.877V24.5879ZM111.879 32H106.151V9.20703H111.879V32ZM123.319 15.1104C124.931 15.1104 126.322 15.3936 127.494 15.96C128.666 16.5166 129.569 17.3564 130.204 18.4795C130.839 19.6025 131.156 21.0088 131.156 22.6982V25.2471H120.917C120.966 26.1162 121.288 26.8291 121.884 27.3857C122.489 27.9424 123.378 28.2207 124.55 28.2207C125.585 28.2207 126.532 28.1182 127.392 27.9131C128.261 27.708 129.154 27.3906 130.072 26.9609V31.0771C129.271 31.4971 128.397 31.8047 127.45 32C126.503 32.1953 125.307 32.293 123.861 32.293C122.191 32.293 120.697 31.9951 119.379 31.3994C118.061 30.8037 117.021 29.8809 116.259 28.6309C115.507 27.3809 115.131 25.7744 115.131 23.8115C115.131 21.8193 115.473 20.1836 116.156 18.9043C116.84 17.6152 117.797 16.6631 119.027 16.0479C120.258 15.4229 121.688 15.1104 123.319 15.1104ZM123.524 19.0068C122.851 19.0068 122.284 19.2217 121.825 19.6514C121.376 20.0713 121.112 20.7354 121.034 21.6436H125.956C125.946 21.1553 125.849 20.7109 125.663 20.3105C125.478 19.9102 125.204 19.5928 124.843 19.3584C124.491 19.124 124.052 19.0068 123.524 19.0068ZM144.779 15.1104C146.488 15.1104 147.885 15.5938 148.969 16.5605C150.053 17.5273 150.595 19.0752 150.595 21.2041V32H144.867V22.9473C144.867 21.8438 144.706 21.0137 144.384 20.457C144.071 19.8906 143.563 19.6074 142.86 19.6074C141.776 19.6074 141.049 20.0518 140.678 20.9404C140.307 21.8193 140.121 23.084 140.121 24.7344V32H134.394V15.4033H138.715L139.491 17.6006H139.711C140.062 17.0732 140.482 16.624 140.971 16.2529C141.459 15.8818 142.021 15.5986 142.655 15.4033C143.29 15.208 143.998 15.1104 144.779 15.1104ZM159.647 32.293C157.938 32.293 156.532 31.5654 155.429 30.1104C154.325 28.6553 153.773 26.5264 153.773 23.7236C153.773 20.8916 154.34 18.748 155.473 17.293C156.605 15.8379 158.07 15.1104 159.867 15.1104C160.609 15.1104 161.249 15.2178 161.786 15.4326C162.323 15.6475 162.787 15.9404 163.178 16.3115C163.578 16.6729 163.925 17.083 164.218 17.542H164.335C164.267 17.1221 164.203 16.5459 164.145 15.8135C164.086 15.0713 164.057 14.3486 164.057 13.6455V9.20703H169.828V32H165.507L164.276 29.9053H164.057C163.793 30.3447 163.461 30.7451 163.061 31.1064C162.67 31.4678 162.191 31.7559 161.625 31.9707C161.068 32.1855 160.409 32.293 159.647 32.293ZM161.991 27.7666C162.909 27.7666 163.554 27.4785 163.925 26.9023C164.306 26.3164 164.511 25.4277 164.54 24.2363V23.7822C164.54 22.4736 164.354 21.4727 163.983 20.7793C163.622 20.0762 162.938 19.7246 161.933 19.7246C161.249 19.7246 160.683 20.0566 160.233 20.7207C159.784 21.3848 159.56 22.415 159.56 23.8115C159.56 25.1885 159.784 26.1943 160.233 26.8291C160.692 27.4541 161.278 27.7666 161.991 27.7666ZM181.898 15.1104C183.998 15.1104 185.639 15.6328 186.82 16.6777C188.002 17.7129 188.593 19.1924 188.593 21.1162V32H184.623L183.524 29.8027H183.407C182.938 30.3887 182.455 30.8672 181.957 31.2383C181.469 31.5996 180.907 31.8633 180.272 32.0293C179.638 32.2051 178.861 32.293 177.943 32.293C176.986 32.293 176.127 32.0977 175.365 31.707C174.604 31.3164 174.003 30.7256 173.563 29.9346C173.124 29.1436 172.904 28.1426 172.904 26.9316C172.904 25.1543 173.52 23.8359 174.75 22.9766C175.98 22.1172 177.763 21.6338 180.097 21.5264L182.865 21.4385V21.2041C182.865 20.4619 182.68 19.9346 182.309 19.6221C181.947 19.3096 181.459 19.1533 180.844 19.1533C180.189 19.1533 179.457 19.2705 178.646 19.5049C177.846 19.7295 177.04 20.0225 176.229 20.3838L174.574 16.6045C175.531 16.1162 176.615 15.7451 177.826 15.4912C179.037 15.2373 180.395 15.1104 181.898 15.1104ZM182.895 24.5879L181.576 24.6465C180.521 24.6855 179.779 24.8711 179.35 25.2031C178.93 25.5254 178.72 25.9893 178.72 26.5947C178.72 27.1611 178.871 27.5811 179.174 27.8545C179.477 28.1182 179.877 28.25 180.375 28.25C181.068 28.25 181.659 28.0303 182.147 27.5908C182.646 27.1514 182.895 26.5801 182.895 25.877V24.5879ZM202.509 15.1104C202.821 15.1104 203.148 15.1348 203.49 15.1836C203.832 15.2227 204.086 15.2568 204.252 15.2861L203.739 20.6914C203.554 20.6426 203.314 20.6035 203.021 20.5742C202.729 20.5352 202.318 20.5156 201.791 20.5156C201.43 20.5156 201.044 20.5498 200.634 20.6182C200.224 20.6865 199.833 20.833 199.462 21.0576C199.101 21.2725 198.803 21.6045 198.568 22.0537C198.334 22.4932 198.217 23.0889 198.217 23.8408V32H192.489V15.4033H196.752L197.646 18.0547H197.924C198.227 17.5078 198.612 17.0146 199.081 16.5752C199.56 16.126 200.092 15.7695 200.678 15.5059C201.273 15.2422 201.884 15.1104 202.509 15.1104Z" fill="white"/>
<path d="M43.5189 4.2438V4.00532C43.5189 3.46754 43.31 2.96369 42.9322 2.58793C42.5532 2.20882 42.0494 2 41.5136 2C40.4078 2 39.5083 2.89965 39.5083 4.00532V4.2438H35.366V4.00532C35.366 3.46754 35.1571 2.96369 34.7793 2.58793C34.4003 2.20882 33.8964 2 33.3607 2C32.2549 2 31.3554 2.89965 31.3554 4.00532V4.2438H27.2131V4.00532C27.2131 3.46765 27.0043 2.96381 26.6264 2.58782C26.2471 2.20871 25.7434 2 25.2078 2C24.1021 2 23.2024 2.89965 23.2024 4.00532V4.2438H19.06V4.00532C19.06 3.46765 18.8511 2.96369 18.4733 2.58782C18.0942 2.20871 17.5905 2 17.0547 2C15.949 2 15.0494 2.89965 15.0494 4.00532V4.2438H10.9071V4.00532C10.9071 3.46765 10.6982 2.96369 10.3204 2.58782C9.94126 2.20871 9.43753 2 8.90188 2C7.79621 2 6.89656 2.89965 6.89656 4.00532V4.2438H2.86835V4.99431L0 38.857H2.86835V40.6453H49.9999V4.2438H43.5189ZM41.0757 4.00532C41.0757 3.76392 41.2721 3.56753 41.5135 3.56753C41.6305 3.56753 41.7406 3.61321 41.8251 3.69786C41.9065 3.77881 41.9513 3.88797 41.9513 4.00543V4.24392H41.0757V4.00532V4.00532ZM32.9228 4.00532C32.9228 3.76392 33.1192 3.56753 33.3606 3.56753C33.5105 3.56753 33.6119 3.63751 33.6722 3.69786C33.7536 3.77881 33.7984 3.88797 33.7984 4.00543V4.24392H32.9228V4.00532V4.00532ZM24.7699 4.00532C24.7699 3.76392 24.9662 3.56753 25.2076 3.56753C25.3577 3.56753 25.4591 3.63751 25.5192 3.69763C25.6006 3.77858 25.6454 3.88786 25.6454 4.00532V4.2438H24.7699V4.00532ZM16.6169 4.00532C16.6169 3.76392 16.8133 3.56753 17.0547 3.56753C17.2046 3.56753 17.3062 3.63751 17.3663 3.69774C17.4477 3.7787 17.4925 3.88797 17.4925 4.00543V4.24392H16.6169V4.00532ZM8.46398 4.00532C8.46398 3.76392 8.66037 3.56753 8.90177 3.56753C9.05169 3.56753 9.15324 3.63751 9.21337 3.69774C9.29477 3.7787 9.33956 3.88797 9.33956 4.00543V4.24392H8.46398V4.00532ZM1.70592 37.2894L2.86835 23.5664V37.2894H1.70592ZM48.4325 39.0777H4.43588V5.81133H9.33944V6.82933C8.496 7.14754 7.89329 7.96075 7.89329 8.91425C7.89329 10.1438 8.89359 11.1442 10.1232 11.1442C11.3528 11.1442 12.3531 10.1439 12.3531 8.91425C12.3531 7.96086 11.7505 7.14754 10.907 6.82933V5.81133H17.4924V6.82933C16.6489 7.14754 16.0462 7.96075 16.0462 8.91425C16.0462 10.1438 17.0465 11.1442 18.2761 11.1442C19.5056 11.1442 20.506 10.1439 20.506 8.91425C20.506 7.96086 19.9034 7.14765 19.0599 6.82944V5.81144H25.6453V6.82944C24.8019 7.14765 24.1992 7.96086 24.1992 8.91437C24.1992 10.1439 25.1995 11.1443 26.4291 11.1443C27.6587 11.1443 28.6589 10.144 28.6589 8.91437C28.6589 7.96097 28.0563 7.14776 27.2128 6.82944V5.81144H33.7983V6.82944C32.9548 7.14765 32.3521 7.96086 32.3521 8.91437C32.3521 10.1439 33.3525 11.1443 34.582 11.1443C35.8115 11.1443 36.8118 10.144 36.8118 8.91437C36.8118 7.96097 36.2092 7.14776 35.3658 6.82944V5.81144H41.9512V6.82944C41.1077 7.14765 40.505 7.96086 40.505 8.91437C40.505 10.1439 41.5055 11.1443 42.735 11.1443C43.9645 11.1443 44.9648 10.144 44.9648 8.91437C44.9648 7.96097 44.3622 7.14776 43.5187 6.82944V5.81144H48.4322V39.0777H48.4325ZM10.7856 8.91425C10.7856 9.27949 10.4884 9.57665 10.1232 9.57665C9.75797 9.57665 9.46082 9.27949 9.46082 8.91425C9.46082 8.54902 9.75797 8.25197 10.1232 8.25197C10.4884 8.25197 10.7856 8.54902 10.7856 8.91425ZM18.9385 8.91425C18.9385 9.27949 18.6415 9.57665 18.2763 9.57665C17.911 9.57665 17.6139 9.27949 17.6139 8.91425C17.6139 8.54902 17.911 8.25197 18.2763 8.25197C18.6415 8.25197 18.9385 8.54902 18.9385 8.91425ZM27.0915 8.91425C27.0915 9.27949 26.7944 9.57665 26.4292 9.57665C26.064 9.57665 25.7669 9.27949 25.7669 8.91425C25.7669 8.54902 26.064 8.25197 26.4292 8.25197C26.7944 8.25197 27.0915 8.54902 27.0915 8.91425ZM35.2444 8.91425C35.2444 9.27949 34.9474 9.57665 34.5821 9.57665C34.2169 9.57665 33.9197 9.27949 33.9197 8.91425C33.9197 8.54902 34.2169 8.25197 34.5821 8.25197C34.9474 8.25197 35.2444 8.54902 35.2444 8.91425ZM43.3975 8.91425C43.3975 9.27949 43.1004 9.57665 42.7352 9.57665C42.3699 9.57665 42.0728 9.27949 42.0728 8.91425C42.0728 8.54902 42.3699 8.25197 42.7352 8.25197C43.1004 8.25197 43.3975 8.54902 43.3975 8.91425Z" fill="url(#paint0_linear_22_89)"/>
<path d="M7.41699 36.0578H45.4513V14.3163H7.41699V36.0578ZM8.98452 15.8838H43.8837V34.4903H8.98452V15.8838Z" fill="url(#paint1_linear_22_89)"/>
<path d="M12.8862 17.7972H10.423V20.2605H12.8862V17.7972Z" fill="url(#paint2_linear_22_89)"/>
<path d="M17.5048 17.7972H15.0415V20.2605H17.5048V17.7972Z" fill="url(#paint3_linear_22_89)"/>
<path d="M22.1234 17.7972H19.6602V20.2605H22.1234V17.7972Z" fill="url(#paint4_linear_22_89)"/>
<path d="M26.7421 17.7972H24.2788V20.2605H26.7421V17.7972Z" fill="url(#paint5_linear_22_89)"/>
<path d="M31.3607 17.7972H28.8975V20.2605H31.3607V17.7972Z" fill="url(#paint6_linear_22_89)"/>
<path d="M42.4454 17.7972H39.9822V20.2605H42.4454V17.7972Z" fill="url(#paint7_linear_22_89)"/>
<path d="M38.0787 17.7972H35.6155V20.2605H38.0787V17.7972Z" fill="url(#paint8_linear_22_89)"/>
<path d="M12.8862 21.9027H10.423V24.3659H12.8862V21.9027Z" fill="url(#paint9_linear_22_89)"/>
<path d="M17.5048 21.9027H15.0415V24.3659H17.5048V21.9027Z" fill="url(#paint10_linear_22_89)"/>
<path d="M22.1234 21.9027H19.6602V24.3659H22.1234V21.9027Z" fill="url(#paint11_linear_22_89)"/>
<path d="M26.7421 21.9027H24.2788V24.3659H26.7421V21.9027Z" fill="url(#paint12_linear_22_89)"/>
<path d="M31.3607 21.9027H28.8975V24.3659H31.3607V21.9027Z" fill="url(#paint13_linear_22_89)"/>
<path d="M42.4454 21.9027H39.9822V24.3659H42.4454V21.9027Z" fill="url(#paint14_linear_22_89)"/>
<path d="M38.0787 21.9027H35.6155V24.3659H38.0787V21.9027Z" fill="url(#paint15_linear_22_89)"/>
<path d="M12.8862 26.008H10.423V28.4713H12.8862V26.008Z" fill="url(#paint16_linear_22_89)"/>
<path d="M17.5048 26.008H15.0415V28.4713H17.5048V26.008Z" fill="url(#paint17_linear_22_89)"/>
<path d="M22.1234 26.008H19.6602V28.4713H22.1234V26.008Z" fill="url(#paint18_linear_22_89)"/>
<path d="M26.7421 26.008H24.2788V28.4713H26.7421V26.008Z" fill="url(#paint19_linear_22_89)"/>
<path d="M31.3607 26.008H28.8975V28.4713H31.3607V26.008Z" fill="url(#paint20_linear_22_89)"/>
<path d="M42.4454 26.008H39.9822V28.4713H42.4454V26.008Z" fill="url(#paint21_linear_22_89)"/>
<path d="M38.0787 26.008H35.6155V28.4713H38.0787V26.008Z" fill="url(#paint22_linear_22_89)"/>
<path d="M12.8862 30.1135H10.423V32.5768H12.8862V30.1135Z" fill="url(#paint23_linear_22_89)"/>
<path d="M17.5048 30.1135H15.0415V32.5768H17.5048V30.1135Z" fill="url(#paint24_linear_22_89)"/>
<path d="M22.1234 30.1135H19.6602V32.5768H22.1234V30.1135Z" fill="url(#paint25_linear_22_89)"/>
<path d="M26.7421 30.1135H24.2788V32.5768H26.7421V30.1135Z" fill="url(#paint26_linear_22_89)"/>
<path d="M31.3607 30.1135H28.8975V32.5768H31.3607V30.1135Z" fill="url(#paint27_linear_22_89)"/>
<path d="M42.4454 30.1135H39.9822V32.5768H42.4454V30.1135Z" fill="url(#paint28_linear_22_89)"/>
<path d="M38.0787 30.1135H35.6155V32.5768H38.0787V30.1135Z" fill="url(#paint29_linear_22_89)"/>
<defs>
<linearGradient id="paint0_linear_22_89" x1="24.9999" y1="2" x2="24.9999" y2="40.6453" gradientUnits="userSpaceOnUse">
<stop stop-color="#2563EB"/>
<stop offset="0.484375" stop-color="#9333EA"/>
<stop offset="1" stop-color="#DB2777"/>
</linearGradient>
<linearGradient id="paint1_linear_22_89" x1="26.4341" y1="14.3163" x2="26.4341" y2="36.0578" gradientUnits="userSpaceOnUse">
<stop stop-color="#2563EB"/>
<stop offset="0.484375" stop-color="#9333EA"/>
<stop offset="1" stop-color="#DB2777"/>
</linearGradient>
<linearGradient id="paint2_linear_22_89" x1="11.6546" y1="17.7972" x2="11.6546" y2="20.2605" gradientUnits="userSpaceOnUse">
<stop stop-color="#2563EB"/>
<stop offset="0.484375" stop-color="#9333EA"/>
<stop offset="1" stop-color="#DB2777"/>
</linearGradient>
<linearGradient id="paint3_linear_22_89" x1="16.2731" y1="17.7972" x2="16.2731" y2="20.2605" gradientUnits="userSpaceOnUse">
<stop stop-color="#2563EB"/>
<stop offset="0.484375" stop-color="#9333EA"/>
<stop offset="1" stop-color="#DB2777"/>
</linearGradient>
<linearGradient id="paint4_linear_22_89" x1="20.8918" y1="17.7972" x2="20.8918" y2="20.2605" gradientUnits="userSpaceOnUse">
<stop stop-color="#2563EB"/>
<stop offset="0.484375" stop-color="#9333EA"/>
<stop offset="1" stop-color="#DB2777"/>
</linearGradient>
<linearGradient id="paint5_linear_22_89" x1="25.5104" y1="17.7972" x2="25.5104" y2="20.2605" gradientUnits="userSpaceOnUse">
<stop stop-color="#2563EB"/>
<stop offset="0.484375" stop-color="#9333EA"/>
<stop offset="1" stop-color="#DB2777"/>
</linearGradient>
<linearGradient id="paint6_linear_22_89" x1="30.1291" y1="17.7972" x2="30.1291" y2="20.2605" gradientUnits="userSpaceOnUse">
<stop stop-color="#2563EB"/>
<stop offset="0.484375" stop-color="#9333EA"/>
<stop offset="1" stop-color="#DB2777"/>
</linearGradient>
<linearGradient id="paint7_linear_22_89" x1="41.2138" y1="17.7972" x2="41.2138" y2="20.2605" gradientUnits="userSpaceOnUse">
<stop stop-color="#2563EB"/>
<stop offset="0.484375" stop-color="#9333EA"/>
<stop offset="1" stop-color="#DB2777"/>
</linearGradient>
<linearGradient id="paint8_linear_22_89" x1="36.8471" y1="17.7972" x2="36.8471" y2="20.2605" gradientUnits="userSpaceOnUse">
<stop stop-color="#2563EB"/>
<stop offset="0.484375" stop-color="#9333EA"/>
<stop offset="1" stop-color="#DB2777"/>
</linearGradient>
<linearGradient id="paint9_linear_22_89" x1="11.6546" y1="21.9027" x2="11.6546" y2="24.3659" gradientUnits="userSpaceOnUse">
<stop stop-color="#2563EB"/>
<stop offset="0.484375" stop-color="#9333EA"/>
<stop offset="1" stop-color="#DB2777"/>
</linearGradient>
<linearGradient id="paint10_linear_22_89" x1="16.2731" y1="21.9027" x2="16.2731" y2="24.3659" gradientUnits="userSpaceOnUse">
<stop stop-color="#2563EB"/>
<stop offset="0.484375" stop-color="#9333EA"/>
<stop offset="1" stop-color="#DB2777"/>
</linearGradient>
<linearGradient id="paint11_linear_22_89" x1="20.8918" y1="21.9027" x2="20.8918" y2="24.3659" gradientUnits="userSpaceOnUse">
<stop stop-color="#2563EB"/>
<stop offset="0.484375" stop-color="#9333EA"/>
<stop offset="1" stop-color="#DB2777"/>
</linearGradient>
<linearGradient id="paint12_linear_22_89" x1="25.5104" y1="21.9027" x2="25.5104" y2="24.3659" gradientUnits="userSpaceOnUse">
<stop stop-color="#2563EB"/>
<stop offset="0.484375" stop-color="#9333EA"/>
<stop offset="1" stop-color="#DB2777"/>
</linearGradient>
<linearGradient id="paint13_linear_22_89" x1="30.1291" y1="21.9027" x2="30.1291" y2="24.3659" gradientUnits="userSpaceOnUse">
<stop stop-color="#2563EB"/>
<stop offset="0.484375" stop-color="#9333EA"/>
<stop offset="1" stop-color="#DB2777"/>
</linearGradient>
<linearGradient id="paint14_linear_22_89" x1="41.2138" y1="21.9027" x2="41.2138" y2="24.3659" gradientUnits="userSpaceOnUse">
<stop stop-color="#2563EB"/>
<stop offset="0.484375" stop-color="#9333EA"/>
<stop offset="1" stop-color="#DB2777"/>
</linearGradient>
<linearGradient id="paint15_linear_22_89" x1="36.8471" y1="21.9027" x2="36.8471" y2="24.3659" gradientUnits="userSpaceOnUse">
<stop stop-color="#2563EB"/>
<stop offset="0.484375" stop-color="#9333EA"/>
<stop offset="1" stop-color="#DB2777"/>
</linearGradient>
<linearGradient id="paint16_linear_22_89" x1="11.6546" y1="26.008" x2="11.6546" y2="28.4713" gradientUnits="userSpaceOnUse">
<stop stop-color="#2563EB"/>
<stop offset="0.484375" stop-color="#9333EA"/>
<stop offset="1" stop-color="#DB2777"/>
</linearGradient>
<linearGradient id="paint17_linear_22_89" x1="16.2731" y1="26.008" x2="16.2731" y2="28.4713" gradientUnits="userSpaceOnUse">
<stop stop-color="#2563EB"/>
<stop offset="0.484375" stop-color="#9333EA"/>
<stop offset="1" stop-color="#DB2777"/>
</linearGradient>
<linearGradient id="paint18_linear_22_89" x1="20.8918" y1="26.008" x2="20.8918" y2="28.4713" gradientUnits="userSpaceOnUse">
<stop stop-color="#2563EB"/>
<stop offset="0.484375" stop-color="#9333EA"/>
<stop offset="1" stop-color="#DB2777"/>
</linearGradient>
<linearGradient id="paint19_linear_22_89" x1="25.5104" y1="26.008" x2="25.5104" y2="28.4713" gradientUnits="userSpaceOnUse">
<stop stop-color="#2563EB"/>
<stop offset="0.484375" stop-color="#9333EA"/>
<stop offset="1" stop-color="#DB2777"/>
</linearGradient>
<linearGradient id="paint20_linear_22_89" x1="30.1291" y1="26.008" x2="30.1291" y2="28.4713" gradientUnits="userSpaceOnUse">
<stop stop-color="#2563EB"/>
<stop offset="0.484375" stop-color="#9333EA"/>
<stop offset="1" stop-color="#DB2777"/>
</linearGradient>
<linearGradient id="paint21_linear_22_89" x1="41.2138" y1="26.008" x2="41.2138" y2="28.4713" gradientUnits="userSpaceOnUse">
<stop stop-color="#2563EB"/>
<stop offset="0.484375" stop-color="#9333EA"/>
<stop offset="1" stop-color="#DB2777"/>
</linearGradient>
<linearGradient id="paint22_linear_22_89" x1="36.8471" y1="26.008" x2="36.8471" y2="28.4713" gradientUnits="userSpaceOnUse">
<stop stop-color="#2563EB"/>
<stop offset="0.484375" stop-color="#9333EA"/>
<stop offset="1" stop-color="#DB2777"/>
</linearGradient>
<linearGradient id="paint23_linear_22_89" x1="11.6546" y1="30.1135" x2="11.6546" y2="32.5768" gradientUnits="userSpaceOnUse">
<stop stop-color="#2563EB"/>
<stop offset="0.484375" stop-color="#9333EA"/>
<stop offset="1" stop-color="#DB2777"/>
</linearGradient>
<linearGradient id="paint24_linear_22_89" x1="16.2731" y1="30.1135" x2="16.2731" y2="32.5768" gradientUnits="userSpaceOnUse">
<stop stop-color="#2563EB"/>
<stop offset="0.484375" stop-color="#9333EA"/>
<stop offset="1" stop-color="#DB2777"/>
</linearGradient>
<linearGradient id="paint25_linear_22_89" x1="20.8918" y1="30.1135" x2="20.8918" y2="32.5768" gradientUnits="userSpaceOnUse">
<stop stop-color="#2563EB"/>
<stop offset="0.484375" stop-color="#9333EA"/>
<stop offset="1" stop-color="#DB2777"/>
</linearGradient>
<linearGradient id="paint26_linear_22_89" x1="25.5104" y1="30.1135" x2="25.5104" y2="32.5768" gradientUnits="userSpaceOnUse">
<stop stop-color="#2563EB"/>
<stop offset="0.484375" stop-color="#9333EA"/>
<stop offset="1" stop-color="#DB2777"/>
</linearGradient>
<linearGradient id="paint27_linear_22_89" x1="30.1291" y1="30.1135" x2="30.1291" y2="32.5768" gradientUnits="userSpaceOnUse">
<stop stop-color="#2563EB"/>
<stop offset="0.484375" stop-color="#9333EA"/>
<stop offset="1" stop-color="#DB2777"/>
</linearGradient>
<linearGradient id="paint28_linear_22_89" x1="41.2138" y1="30.1135" x2="41.2138" y2="32.5768" gradientUnits="userSpaceOnUse">
<stop stop-color="#2563EB"/>
<stop offset="0.484375" stop-color="#9333EA"/>
<stop offset="1" stop-color="#DB2777"/>
</linearGradient>
<linearGradient id="paint29_linear_22_89" x1="36.8471" y1="30.1135" x2="36.8471" y2="32.5768" gradientUnits="userSpaceOnUse">
<stop stop-color="#2563EB"/>
<stop offset="0.484375" stop-color="#9333EA"/>
<stop offset="1" stop-color="#DB2777"/>
</linearGradient>
</defs>
</svg>
